<svg xmlns="http://www.w3.org/2000/svg"><defs><pattern width="20" height="20" patternUnits="userSpaceOnUse" viewBox="0 0 100 100"><path d="M0 0h50v100h-50z"/></pattern></defs><symbol viewBox="0 0 240 240"><title>back-arrow icon</title><g fill="#fff"><path d="M101.8 1.5c-33.8 5.3-62.9 24.5-82.6 54.5-37 56.1-17.9 133.4 41.3 167.7 45.9 26.6 102.2 19.8 141.1-17 55.3-52.3 49.9-138.1-11.5-183.6-24.8-18.3-57.5-26.3-88.3-21.6zm34.9 21c21.6 4.1 39.8 13.9 54.5 29.3 12.2 12.8 20.4 27.4 24.9 44.2 3.2 11.8 3.3 35.7.1 47.2-5.1 18.7-13.5 33.3-26.6 46.4-18.8 18.7-40.1 28.1-66.1 29.2-55.8 2.3-102.6-43-102.5-99.2.1-44.9 31-84.5 74.5-95.5 4.4-1.1 9.4-2.2 11-2.4 7.4-1 23-.6 30.2.8zM78.1 94.6l-24.3 25.5 7.8 8.2c4.4 4.5 15.3 16 24.3 25.5l16.5 17.2h34.8l-18.1-18.8-18-18.7 39.9-.3 40-.2v-26h-80.5l13-13.3c7.2-7.2 15.5-15.8 18.5-19l5.4-5.7h-17.4l-17.5.1-24.4 25.5z"/></g></symbol><symbol viewBox="0 0 512 512"><title>chevron</title><path d="M256 298.3l174.2-167.2c4.3-4.2 11.4-4.1 15.8.2l30.6 29.9c4.4 4.3 4.5 11.3.2 15.5l-212.7 204.2c-2.2 2.2-5.2 3.2-8.1 3-3 .1-5.9-.9-8.1-3l-212.7-204.2c-4.3-4.2-4.2-11.2.2-15.5l30.6-29.9c4.4-4.3 11.5-4.4 15.8-.2l174.2 167.2z"/></symbol><symbol viewBox="0 0 21.23 42.01"><title>facebook</title><path class="cls-1" d="M21.23.31v6.69h-3.83a3.55 3.55 0 0 0-2.85.91 4.26 4.26 0 0 0-.74 2.72v4.77h7.19l-1 7.47h-6.19v19.13h-7.54v-19.15h-6.27v-7.47h6.27v-5.53q0-4.69 2.55-7.28a9 9 0 0 1 6.81-2.57 39.57 39.57 0 0 1 5.6.31z"/></symbol><symbol viewBox="0 0 42.01 42.01"><title>instagram</title><path class="cls-1" d="M37.25 35.49v-17.72h-3.69a11.77 11.77 0 0 1 .57 3.58 12.12 12.12 0 0 1-1.75 6.36 12.76 12.76 0 0 1-4.76 4.59 13.13 13.13 0 0 1-6.56 1.7 12.78 12.78 0 0 1-9.19-3.71 12 12 0 0 1-3.83-9 11.77 11.77 0 0 1 .49-3.56h-3.85v17.76a1.63 1.63 0 0 0 1.6 1.67h29.3a1.63 1.63 0 0 0 1.17-.47 1.59 1.59 0 0 0 .5-1.2zm-7.77-14.57a7.75 7.75 0 0 0-2.48-5.78 8.28 8.28 0 0 0-6-2.4 8.25 8.25 0 0 0-5.91 2.39 7.75 7.75 0 0 0-2.47 5.78 7.75 7.75 0 0 0 2.47 5.79 8.25 8.25 0 0 0 5.91 2.4 8.28 8.28 0 0 0 6-2.4 7.75 7.75 0 0 0 2.48-5.78zm7.76-9.84v-4.52a1.84 1.84 0 0 0-.54-1.31 1.8 1.8 0 0 0-1.31-.56h-4.78a1.8 1.8 0 0 0-1.31.56 1.84 1.84 0 0 0-.54 1.31v4.52a1.87 1.87 0 0 0 1.84 1.92h4.8a1.87 1.87 0 0 0 1.85-1.89zm4.76-5.69v31.23a5.41 5.41 0 0 1-5.38 5.38h-31.23a5.19 5.19 0 0 1-3.8-1.59 5.19 5.19 0 0 1-1.59-3.79v-31.23a5.19 5.19 0 0 1 1.59-3.8 5.19 5.19 0 0 1 3.8-1.59h31.23a5.19 5.19 0 0 1 3.8 1.59 5.19 5.19 0 0 1 1.58 3.8z"/></symbol><symbol viewBox="0 -0.075 48.083 36.156"><title>mail</title><path class="cls-1" d="M0 0v6l24 12 24-12v-6h-48zm0 12v24h48v-24l-24 12-24-12z" fill-rule="evenodd" fill="#fff"/></symbol><symbol viewBox="0 0 103.5 103.5"><title>phone icon</title><path d="M64.832 55.837c-3.581 3.583-3.581 7.166-7.163 7.166-3.579 0-7.161-3.583-10.743-7.166-3.578-3.58-7.16-7.161-7.16-10.743 0-3.579 3.582-3.579 7.16-7.161 3.582-3.582-7.16-14.317-10.74-14.317-3.577 0-10.74 10.736-10.74 10.736 0 7.164 7.357 21.68 14.32 28.651 6.966 6.961 21.485 14.32 28.646 14.32 0 0 10.741-7.163 10.741-10.742 0-3.578-10.741-14.323-14.321-10.744z" fill="#fff"/><circle cx="51.833" cy="51.859" r="50" fill="none"/></symbol><symbol viewBox="0 0 51.78 42.06"><title>twitter</title><path class="cls-1" d="M51.78 5a22.23 22.23 0 0 1-5.32 5.52v1.38a30.15 30.15 0 0 1-1.25 8.53 30.81 30.81 0 0 1-3.76 8.13 32.1 32.1 0 0 1-6.06 6.92 27 27 0 0 1-8.48 4.8 31 31 0 0 1-10.62 1.8 29.47 29.47 0 0 1-16.29-4.79 22.71 22.71 0 0 0 2.56.13 20.78 20.78 0 0 0 13.17-4.53 10.63 10.63 0 0 1-9.92-7.36 13.45 13.45 0 0 0 2 .16 11 11 0 0 0 2.79-.36 10.44 10.44 0 0 1-6.09-3.67 10.25 10.25 0 0 1-2.41-6.75v-.13a10.52 10.52 0 0 0 4.8 1.34 10.6 10.6 0 0 1-3.45-3.78 10.34 10.34 0 0 1-1.28-5.07 10.4 10.4 0 0 1 1.45-5.33 30.08 30.08 0 0 0 9.71 7.83 29.57 29.57 0 0 0 12.2 3.23 11.79 11.79 0 0 1-.26-2.43 10.23 10.23 0 0 1 3-7.48 10.64 10.64 0 0 1 15 0l.21.22a20.81 20.81 0 0 0 6.85-2.51 10.3 10.3 0 0 1-4.67 5.85 21.14 21.14 0 0 0 6.12-1.65z"/></symbol></svg>